<?xml version="1.0" encoding="iso-8859-1"?>
<!-- Generator: Adobe Illustrator 16.0.0, SVG Export Plug-In . SVG Version: 6.00 Build 0)  -->
<!DOCTYPE svg PUBLIC "-//W3C//DTD SVG 1.1//EN" "http://www.w3.org/Graphics/SVG/1.1/DTD/svg11.dtd">
<svg version="1.1" id="Capa_1" xmlns="http://www.w3.org/2000/svg" xmlns:xlink="http://www.w3.org/1999/xlink" x="0px" y="0px"
	 width="918.158px" height="918.158px" viewBox="0 0 918.158 918.158" style="enable-background:new 0 0 918.158 918.158;"
	 xml:space="preserve">
<g>
	<g>
		<path d="M563.579,456.329c-10.3-10.3-23.4-19-39.1-25.899c-14.601-6.4-30.5-9.601-45.801-12.7c-20-4-39.1-7.9-51.6-18.3
			c-1.8-1.5-3.5-3.2-5-5c-5-6-7.4-13.7-7.4-23.3c0-9.7,2.9-17.5,9.101-24.5c4.899-5.5,12.2-9.7,20.399-12.1c4.7-1.3,9.601-2,14.7-2
			c12.901,0,24.401,4.5,31.401,12.3c5.2,5.8,8.899,15.4,10.8,27.9c1.2,8.2,8.3,14.1,16.4,14.1c0.8,0,1.6-0.1,2.5-0.199l53.3-8
			c9-1.301,15.2-9.7,14-18.7l0,0c-4.601-32.5-18.5-58.6-41.3-77.6c-11.7-9.7-26.4-17.2-42.9-22.1v-25.8c0-9.2-7.4-16.6-16.6-16.6
			h-42.101h-11.899c-9.2,0-16.601,7.4-16.601,16.6v25.4c-18.2,5.1-34.1,13.4-46.6,24.3c-26.3,23-39.7,53.4-39.7,90.2
			c0,10.4,1.2,20.301,3.5,29.7c2.3,9.4,5.7,18.2,10.2,26.5c9.3,17,22.7,30.5,39.899,40.101c24.301,13.6,47.9,19.6,73.9,25.398
			c17.201,3.9,36.1,9.5,45.901,21.4c4.5,5.6,6.899,13.801,6.899,24.301c0,13.1-3.6,23.699-11.1,32.199c-7,8-17.2,13.301-28.7,15.1
			c-2.7,0.4-5.6,0.602-8.399,0.602c-16.401,0-31.701-6.9-40.701-18.602c-4.2-5.398-10-16.898-13.4-41
			c-1.2-8.299-8.3-14.199-16.399-14.199c-0.9,0-1.9,0.1-2.9,0.199l-52.1,9.102c-8.4,1.5-14.301,9-13.7,17.5
			c1.8,25.699,8.7,48.1,20.3,66.398c11.8,18.602,26.3,32.4,43,41c9.5,4.9,19.6,8.801,30.3,11.701v21.4c0,9.199,7.4,16.6,16.6,16.6
			h54c9.2,0,16.601-7.4,16.601-16.6v-20.4c23.1-6.4,43.3-18.201,58.8-34.5c22.7-23.9,34.2-53.801,34.2-89.1
			c0-16.102-2.8-31.4-8.3-45.4C582.179,479.429,574.079,466.829,563.579,456.329z"/>
		<g>
			<g>
				<path d="M862.379,228.529l39.4-37.6c13.899-13.3,8.2-36.7-10.2-42.1l-227.9-66.8c-18.5-5.4-35.899,11.2-31.3,29.9l56,230.7
					c4.5,18.7,27.601,25.5,41.601,12.2l32.699-31.2c12,31,19.801,63.6,23.301,97.5c6.5,62.2-2.301,125.399-25.601,183
					c-19.6,48.5-49.399,92.898-86.8,129.699c-9.4,9.301-10.1,24.301-1.4,34.301l52.5,60.5c9.4,10.799,25.9,11.5,36.301,1.6
					c51.8-49.9,93-110.701,120-177.201c31.3-77.199,43.1-162,34.399-245.399C908.679,344.329,890.879,284.329,862.379,228.529z"/>
			</g>
			<path d="M55.779,689.63l-39.4,37.6c-13.9,13.299-8.2,36.699,10.2,42.1l227.9,66.801c18.5,5.398,35.9-11.201,31.3-29.9
				l-56-230.701c-4.5-18.699-27.6-25.5-41.6-12.199l-32.7,31.199c-12-31-19.8-63.6-23.3-97.5c-6.5-62.2,2.3-125.399,25.6-183
				c19.6-48.5,49.4-92.9,86.8-129.7c9.4-9.3,10.1-24.3,1.4-34.3l-52.5-60.5c-9.4-10.8-25.9-11.5-36.3-1.6
				c-51.8,49.9-93,110.7-120,177.2c-31.3,77.2-43.1,162-34.4,245.399C9.479,573.829,27.279,633.829,55.779,689.63z"/>
		</g>
	</g>
</g>
<g>
</g>
<g>
</g>
<g>
</g>
<g>
</g>
<g>
</g>
<g>
</g>
<g>
</g>
<g>
</g>
<g>
</g>
<g>
</g>
<g>
</g>
<g>
</g>
<g>
</g>
<g>
</g>
<g>
</g>
</svg>
