<?xml version="1.0" encoding="utf-8"?>
<!-- Svg Vector Icons : http://www.onlinewebfonts.com/icon -->
<!DOCTYPE svg PUBLIC "-//W3C//DTD SVG 1.1//EN" "http://www.w3.org/Graphics/SVG/1.1/DTD/svg11.dtd">
<svg version="1.1" xmlns="http://www.w3.org/2000/svg" xmlns:xlink="http://www.w3.org/1999/xlink" x="0px" y="0px" viewBox="0 0 256 256" enable-background="new 0 0 256 256" xml:space="preserve">
<metadata> Svg Vector Icons : http://www.onlinewebfonts.com/icon </metadata>
<g><g><path fill="#000000" d="M191,214.4c-17.7,12.9-39.4,20.4-63,20.4c-59.2,0-107.2-48-107.2-107.2c0-59.2,48-107.2,107.2-107.2s107.2,48,107.2,107.2c0,11-1.6,21.5-4.7,31.5l8,10c4.9-12.9,7.5-26.9,7.5-41.5c0-65.2-52.8-118-118-118c-65.2,0-118,52.8-118,118c0,65.2,52.8,118,118,118c23.2,0,44.8-6.7,63-18.2V214.4z"/><path fill="#000000" d="M223.9,195.6v0.7c0.2-0.2,0.4-0.5,0.5-0.7H223.9z"/><path fill="#000000" d="M67.6,148.6H41.8v-49h6.3v43.4h19.5L67.6,148.6L67.6,148.6z"/><path fill="#000000" d="M69.5,124.7c0-7.9,2.1-14.2,6.4-18.9c4.3-4.7,10.1-7,17.4-7c6.8,0,12.3,2.3,16.4,6.9c4.1,4.6,6.2,10.5,6.2,17.9c0,7.9-2.1,14.2-6.4,18.9c-4.3,4.6-9.9,7-17.1,7c-7,0-12.5-2.3-16.7-6.9C71.6,138,69.5,132.1,69.5,124.7z M76.1,124.2c0,5.9,1.5,10.7,4.5,14.2c3,3.6,7,5.3,11.8,5.3c5.2,0,9.3-1.7,12.3-5.1c3-3.4,4.5-8.2,4.5-14.4c0-6.3-1.5-11.2-4.4-14.6c-2.9-3.4-6.9-5.2-12-5.2c-5,0-9,1.8-12.1,5.4C77.6,113.6,76.1,118.4,76.1,124.2z"/><path fill="#000000" d="M162.4,145.3c-4.9,2.8-10.4,4.2-16.6,4.2c-7.1,0-12.8-2.2-17.1-6.7c-4.3-4.5-6.5-10.5-6.5-17.9c0-7.6,2.4-13.8,7.2-18.6c4.8-4.9,10.9-7.3,18.4-7.3c5.3,0,9.8,0.8,13.4,2.5v6.8c-3.9-2.5-8.6-3.7-14-3.7c-5.3,0-9.7,1.8-13.2,5.5c-3.5,3.6-5.2,8.5-5.2,14.4c0,6.1,1.6,10.9,4.8,14.3c3.2,3.4,7.5,5.1,12.9,5.1c3.7,0,6.9-0.7,9.5-2.1v-13.2h-10.6v-5.6h17V145.3z"/><path fill="#000000" d="M170.3,124.7c0-7.9,2.1-14.2,6.4-18.9c4.3-4.7,10.1-7,17.4-7c6.8,0,12.3,2.3,16.4,6.9c4.1,4.6,6.2,10.5,6.2,17.9c0,7.9-2.1,14.2-6.4,18.9c-4.3,4.6-9.9,7-17.1,7c-7,0-12.5-2.3-16.7-6.9C172.4,138,170.3,132.1,170.3,124.7z M177,124.2c0,5.9,1.5,10.7,4.5,14.2c3,3.6,7,5.3,11.8,5.3c5.2,0,9.3-1.7,12.3-5.1c3-3.4,4.5-8.2,4.5-14.4c0-6.3-1.5-11.2-4.4-14.6c-2.9-3.4-6.9-5.2-12-5.2c-5,0-9,1.8-12.1,5.4C178.5,113.6,177,118.4,177,124.2z"/><path fill="#000000" d="M206.6,246.4h18.4v-45.5h19.9l-29.5-37.1l-29.4,37.1h20.6V246.4z"/></g></g>
</svg>